<svg width="414" height="204" viewBox="0 0 414 204" fill="none" xmlns="http://www.w3.org/2000/svg">
<rect x="63.8472" y="14" width="52.4458" height="17.1428" rx="8.57142" fill="#6234FB"/>
<rect x="94.6304" y="44.8569" width="52.4458" height="17.1428" rx="8.57142" fill="#00E6B9"/>
<rect x="126.554" y="76.8574" width="52.4458" height="17.1428" rx="8.57142" fill="#00E6B9"/>
<rect x="62.707" y="76.8574" width="52.4458" height="17.1428" rx="8.57142" fill="#6234FB"/>
<rect x="95.771" y="108.857" width="52.4458" height="17.1428" rx="8.57142" fill="#00E6B9"/>
<rect x="63.8472" y="140.857" width="52.4458" height="17.1428" rx="8.57142" fill="#6234FB"/>
<rect y="140.857" width="52.4458" height="17.1428" rx="8.57142" fill="#FF6E8A"/>
<rect x="31.9238" y="172.857" width="52.4458" height="17.1428" rx="8.57142" fill="#FF6E8A"/>
<path d="M227.116 9.285V33.082C227.116 37.216 226.268 38.488 223.512 38.488H219.378V43.311L222.77 44.106H227.222C230.667 44.106 233.37 41.456 233.37 36.103V9.285H227.116ZM254.962 16.44V38.011L249.874 38.541C247.33 38.541 246.005 36.898 246.005 33.877V16.44H239.804V33.877C239.804 40.025 242.401 44.212 249.132 44.212L255.121 42.887L255.439 44H261.163V16.44H254.962ZM279.744 16.228L273.755 17.553L273.437 16.44H267.713V44H273.914V22.429L279.002 21.899C281.546 21.899 282.871 23.542 282.871 26.563V44H289.072V26.563C289.072 20.415 286.475 16.228 279.744 16.228ZM295.144 5.734V11.882H302.087V4.25L295.144 5.734ZM295.515 16.44V44H301.716V16.44H295.515ZM319.518 44.371C327.309 44.371 331.231 41.191 331.231 30.273C331.231 19.355 327.309 15.91 319.518 15.91C311.727 15.91 307.805 19.355 307.805 30.273C307.805 41.191 311.727 44.371 319.518 44.371ZM319.518 38.859C315.914 38.859 314.006 36.792 314.006 30.273C314.006 23.595 315.914 21.422 319.518 21.422C323.122 21.422 325.03 23.595 325.03 30.273C325.03 36.792 323.122 38.859 319.518 38.859ZM351.805 16.228C349.844 16.228 347.618 16.917 345.657 18.189L343.113 19.832L342.159 16.44H336.965V44H343.166V24.549L348.466 22.535H351.964L353.766 16.493C353.342 16.334 352.494 16.228 351.805 16.228ZM244.341 66.009V60.285H221.71V95H227.964V79.948H240.896V74.224H227.964V66.009H244.341ZM257.978 95.371C265.769 95.371 269.691 92.191 269.691 81.273C269.691 70.355 265.769 66.91 257.978 66.91C250.187 66.91 246.265 70.355 246.265 81.273C246.265 92.191 250.187 95.371 257.978 95.371ZM257.978 89.859C254.374 89.859 252.466 87.792 252.466 81.273C252.466 74.595 254.374 72.422 257.978 72.422C261.582 72.422 263.49 74.595 263.49 81.273C263.49 87.792 261.582 89.859 257.978 89.859ZM290.265 67.228C288.304 67.228 286.078 67.917 284.117 69.189L281.573 70.832L280.619 67.44H275.425V95H281.626V75.549L286.926 73.535H290.424L292.226 67.493C291.802 67.334 290.954 67.228 290.265 67.228ZM321.146 67.228L313.991 68.765C312.507 67.705 309.91 67.228 307.419 67.228L302.013 68.394L301.748 67.44H296.024V95H302.225V72.899H305.882C308.85 72.899 309.751 74.542 309.751 77.563V95H315.952V72.899H319.609C322.577 72.899 323.478 74.542 323.478 77.563V95H329.679V77.563C329.679 70.355 327.347 67.228 321.146 67.228ZM244.341 117.009V111.285H221.71V146H227.964V130.948H240.896V125.224H227.964V117.009H244.341ZM262.519 118.44V140.011L257.431 140.541C254.887 140.541 253.562 138.898 253.562 135.877V118.44H247.361V135.877C247.361 142.025 249.958 146.212 256.689 146.212L262.678 144.887L262.996 146H268.72V118.44H262.519ZM287.3 118.228L281.311 119.553L280.993 118.44H275.269V146H281.47V124.429L286.558 123.899C289.102 123.899 290.427 125.542 290.427 128.563V146H296.628V128.563C296.628 122.415 294.031 118.228 287.3 118.228ZM301.853 132.273C301.853 142.767 305.351 146.159 313.301 146.159H316.11L321.41 144.94V140.011L315.368 140.647H313.301C309.326 140.647 308.054 138.527 308.054 132.273C308.054 126.125 309.326 123.74 313.301 123.74H315.368L321.41 124.376V119.447L316.11 118.228H313.301C305.351 118.228 301.853 121.779 301.853 132.273ZM339 140.541C336.085 140.541 335.078 139.428 335.078 134.658V124.111H342.392V118.44H335.078V110.914L328.983 111.868V118.44H325.326V124.111H328.877V136.937C328.877 143.244 331.156 146.159 336.032 146.159L342.71 144.728V140.541H339ZM347.575 107.734V113.882H354.518V106.25L347.575 107.734ZM347.946 118.44V146H354.147V118.44H347.946ZM371.949 146.371C379.74 146.371 383.662 143.191 383.662 132.273C383.662 121.355 379.74 117.91 371.949 117.91C364.158 117.91 360.236 121.355 360.236 132.273C360.236 143.191 364.158 146.371 371.949 146.371ZM371.949 140.859C368.345 140.859 366.437 138.792 366.437 132.273C366.437 125.595 368.345 123.422 371.949 123.422C375.553 123.422 377.461 125.595 377.461 132.273C377.461 138.792 375.553 140.859 371.949 140.859ZM401.426 118.228L395.437 119.553L395.119 118.44H389.395V146H395.596V124.429L400.684 123.899C403.228 123.899 404.553 125.542 404.553 128.563V146H410.754V128.563C410.754 122.415 408.157 118.228 401.426 118.228ZM246.938 176.224H236.232V181.842H238.564V191.382H231.833C228.441 191.382 226.904 189.951 226.904 186.665C226.904 183.75 228.335 181.842 230.826 181.842H233.37V176.224H231.303C229.236 176.224 228.176 174.846 228.176 172.037C228.176 169.387 229.077 167.903 231.303 167.903H239.571V163.08L235.702 162.285H230.773C224.996 162.285 221.922 165.412 221.922 171.931C221.922 175.217 222.717 177.443 224.254 178.927C221.975 180.517 220.65 183.167 220.65 187.089C220.65 194.509 223.883 197 231.833 197H240.684L244.659 196.152V181.842H246.938V176.224ZM264.744 179.669C264.744 192.177 268.666 197.159 275.662 197.159H282.446L287.746 195.94V190.905L281.704 191.541H277.252C272.959 191.541 270.998 188.308 270.998 179.669C270.998 171.136 272.959 167.744 277.252 167.744H281.704L287.746 168.486V163.345L282.446 162.126H275.662C268.666 162.126 264.744 167.161 264.744 179.669ZM299.637 197V157.25L293.436 158.575V197H299.637ZM318.358 169.334H313.164L307.016 170.659V175.588L313.535 174.952H316.503C318.941 174.952 320.372 176.542 320.372 178.662V180.888L316.503 180.093H313.482C307.546 180.093 304.684 183.114 304.684 188.679C304.684 194.191 307.546 197 313.482 197H326.573V178.503C326.573 173.415 322.81 169.334 318.358 169.334ZM310.885 188.679C310.885 186.877 311.839 185.711 313.535 185.711H320.372V191.382H313.535C311.839 191.382 310.885 190.428 310.885 188.679ZM350.954 175.323V170.447L345.23 169.175H341.679C334.842 169.175 331.874 171.666 331.874 177.602C331.874 183.114 334.365 185.393 341.679 186.241C345.336 186.665 346.343 187.46 346.343 189.209C346.343 190.905 345.336 191.647 341.679 191.647H338.181L332.139 191.011V195.94L337.439 197.159H341.732C350.053 197.159 352.279 195.304 352.279 189.103C352.279 182.796 349.947 180.835 341.679 179.987C338.658 179.669 337.81 179.033 337.81 177.284C337.81 175.588 338.87 174.687 341.679 174.687H344.435L350.954 175.323ZM376.315 175.323V170.447L370.591 169.175H367.04C360.203 169.175 357.235 171.666 357.235 177.602C357.235 183.114 359.726 185.393 367.04 186.241C370.697 186.665 371.704 187.46 371.704 189.209C371.704 190.905 370.697 191.647 367.04 191.647H363.542L357.5 191.011V195.94L362.8 197.159H367.093C375.414 197.159 377.64 195.304 377.64 189.103C377.64 182.796 375.308 180.835 367.04 179.987C364.019 179.669 363.171 179.033 363.171 177.284C363.171 175.588 364.231 174.687 367.04 174.687H369.796L376.315 175.323Z" fill="#FCFCFC"/>
</svg>
